<svg xmlns="http://www.w3.org/2000/svg" xmlns:xlink="http://www.w3.org/1999/xlink" width="1080" zoomAndPan="magnify" viewBox="0 0 810 809.999993" height="1080" preserveAspectRatio="xMidYMid meet" version="1.0"><defs><clipPath id="7f089b470f"><path d="M 120.238281 119 L 689.488281 119 L 689.488281 689 L 120.238281 689 Z M 120.238281 119 " clip-rule="nonzero"/></clipPath><clipPath id="e2f4081249"><path d="M 128 465 L 681 465 L 681 695.300781 L 128 695.300781 Z M 128 465 " clip-rule="nonzero"/></clipPath></defs><g clip-path="url(#7f089b470f)"><path fill="#f9dfaf" d="M 689.472656 404.140625 C 689.472656 408.800781 689.359375 413.460938 689.132812 418.113281 C 688.902344 422.769531 688.5625 427.417969 688.105469 432.054688 C 687.648438 436.695312 687.078125 441.320312 686.394531 445.929688 C 685.710938 450.539062 684.914062 455.132812 684.003906 459.703125 C 683.097656 464.273438 682.078125 468.820312 680.945312 473.34375 C 679.8125 477.863281 678.570312 482.355469 677.21875 486.816406 C 675.867188 491.273438 674.40625 495.699219 672.835938 500.085938 C 671.269531 504.476562 669.589844 508.824219 667.808594 513.128906 C 666.027344 517.4375 664.140625 521.695312 662.148438 525.910156 C 660.15625 530.125 658.0625 534.285156 655.867188 538.394531 C 653.671875 542.507812 651.375 546.5625 648.980469 550.558594 C 646.585938 554.558594 644.09375 558.492188 641.507812 562.367188 C 638.921875 566.246094 636.238281 570.054688 633.464844 573.796875 C 630.6875 577.542969 627.824219 581.214844 624.871094 584.816406 C 621.914062 588.421875 618.871094 591.949219 615.746094 595.402344 C 612.617188 598.855469 609.40625 602.230469 606.113281 605.527344 C 602.816406 608.824219 599.445312 612.035156 595.996094 615.164062 C 592.542969 618.296875 589.015625 621.339844 585.417969 624.296875 C 581.816406 627.253906 578.144531 630.121094 574.402344 632.898438 C 570.664062 635.671875 566.855469 638.355469 562.980469 640.945312 C 559.109375 643.535156 555.175781 646.027344 551.179688 648.425781 C 547.183594 650.820312 543.132812 653.117188 539.023438 655.316406 C 534.917969 657.511719 530.757812 659.605469 526.546875 661.601562 C 522.335938 663.59375 518.078125 665.480469 513.777344 667.265625 C 509.472656 669.046875 505.128906 670.726562 500.742188 672.296875 C 496.355469 673.867188 491.933594 675.328125 487.476562 676.679688 C 483.019531 678.035156 478.53125 679.277344 474.011719 680.410156 C 469.496094 681.542969 464.953125 682.5625 460.382812 683.472656 C 455.816406 684.382812 451.226562 685.175781 446.621094 685.863281 C 442.011719 686.546875 437.390625 687.117188 432.753906 687.574219 C 428.121094 688.03125 423.476562 688.371094 418.824219 688.601562 C 414.171875 688.828125 409.515625 688.945312 404.855469 688.945312 C 400.199219 688.945312 395.542969 688.828125 390.890625 688.601562 C 386.238281 688.371094 381.59375 688.03125 376.960938 687.574219 C 372.324219 687.117188 367.703125 686.546875 363.09375 685.863281 C 358.488281 685.175781 353.898438 684.382812 349.332031 683.472656 C 344.761719 682.5625 340.21875 681.542969 335.699219 680.410156 C 331.183594 679.277344 326.695312 678.035156 322.238281 676.679688 C 317.78125 675.328125 313.359375 673.867188 308.972656 672.296875 C 304.585938 670.726562 300.242188 669.046875 295.9375 667.265625 C 291.636719 665.480469 287.378906 663.59375 283.167969 661.601562 C 278.957031 659.605469 274.796875 657.511719 270.691406 655.316406 C 266.582031 653.117188 262.53125 650.820312 258.535156 648.425781 C 254.539062 646.027344 250.605469 643.535156 246.734375 640.945312 C 242.859375 638.355469 239.050781 635.671875 235.3125 632.898438 C 231.570312 630.121094 227.898438 627.253906 224.296875 624.296875 C 220.699219 621.339844 217.171875 618.296875 213.71875 615.167969 C 210.269531 612.035156 206.894531 608.824219 203.601562 605.527344 C 200.308594 602.230469 197.097656 598.855469 193.96875 595.402344 C 190.84375 591.949219 187.800781 588.421875 184.84375 584.816406 C 181.890625 581.214844 179.027344 577.542969 176.25 573.796875 C 173.476562 570.054688 170.792969 566.246094 168.207031 562.367188 C 165.617188 558.492188 163.128906 554.558594 160.734375 550.558594 C 158.339844 546.5625 156.042969 542.507812 153.847656 538.394531 C 151.652344 534.285156 149.558594 530.125 147.566406 525.910156 C 145.574219 521.695312 143.6875 517.4375 141.90625 513.128906 C 140.121094 508.824219 138.445312 504.476562 136.878906 500.085938 C 135.308594 495.699219 133.847656 491.273438 132.496094 486.816406 C 131.144531 482.355469 129.902344 477.863281 128.769531 473.34375 C 127.636719 468.820312 126.617188 464.273438 125.710938 459.703125 C 124.800781 455.132812 124.003906 450.539062 123.320312 445.929688 C 122.636719 441.320312 122.066406 436.695312 121.609375 432.054688 C 121.152344 427.417969 120.8125 422.769531 120.582031 418.113281 C 120.355469 413.460938 120.238281 408.800781 120.238281 404.140625 C 120.238281 399.480469 120.355469 394.820312 120.582031 390.164062 C 120.8125 385.511719 121.152344 380.863281 121.609375 376.226562 C 122.066406 371.585938 122.636719 366.960938 123.320312 362.351562 C 124.003906 357.742188 124.800781 353.148438 125.710938 348.578125 C 126.617188 344.007812 127.636719 339.460938 128.769531 334.9375 C 129.902344 330.417969 131.144531 325.925781 132.496094 321.464844 C 133.847656 317.007812 135.308594 312.582031 136.878906 308.191406 C 138.445312 303.804688 140.121094 299.457031 141.90625 295.152344 C 143.6875 290.84375 145.574219 286.585938 147.566406 282.371094 C 149.558594 278.15625 151.652344 273.996094 153.847656 269.886719 C 156.042969 265.773438 158.339844 261.71875 160.734375 257.722656 C 163.128906 253.722656 165.617188 249.789062 168.207031 245.910156 C 170.792969 242.035156 173.476562 238.226562 176.25 234.484375 C 179.027344 230.738281 181.890625 227.066406 184.84375 223.460938 C 187.800781 219.859375 190.84375 216.332031 193.96875 212.878906 C 197.097656 209.425781 200.308594 206.050781 203.601562 202.753906 C 206.894531 199.457031 210.269531 196.246094 213.71875 193.113281 C 217.171875 189.984375 220.699219 186.941406 224.296875 183.984375 C 227.898438 181.027344 231.570312 178.160156 235.3125 175.382812 C 239.050781 172.605469 242.859375 169.925781 246.734375 167.335938 C 250.605469 164.746094 254.539062 162.253906 258.535156 159.855469 C 262.53125 157.460938 266.582031 155.164062 270.691406 152.964844 C 274.796875 150.769531 278.957031 148.671875 283.167969 146.679688 C 287.378906 144.6875 291.636719 142.800781 295.9375 141.015625 C 300.242188 139.230469 304.585938 137.554688 308.972656 135.984375 C 313.359375 134.414062 317.78125 132.953125 322.238281 131.601562 C 326.695312 130.246094 331.183594 129.003906 335.699219 127.871094 C 340.21875 126.738281 344.761719 125.71875 349.332031 124.808594 C 353.898438 123.898438 358.488281 123.101562 363.09375 122.417969 C 367.703125 121.734375 372.324219 121.164062 376.960938 120.707031 C 381.59375 120.25 386.238281 119.910156 390.890625 119.679688 C 395.542969 119.449219 400.199219 119.335938 404.855469 119.335938 C 409.515625 119.335938 414.171875 119.449219 418.824219 119.679688 C 423.476562 119.910156 428.121094 120.25 432.753906 120.707031 C 437.390625 121.164062 442.011719 121.734375 446.621094 122.417969 C 451.226562 123.101562 455.816406 123.898438 460.382812 124.808594 C 464.953125 125.71875 469.496094 126.738281 474.011719 127.871094 C 478.53125 129.003906 483.019531 130.246094 487.476562 131.601562 C 491.933594 132.953125 496.355469 134.414062 500.742188 135.984375 C 505.128906 137.554688 509.472656 139.230469 513.777344 141.015625 C 518.078125 142.800781 522.335938 144.6875 526.546875 146.679688 C 530.757812 148.671875 534.917969 150.769531 539.023438 152.964844 C 543.132812 155.164062 547.183594 157.460938 551.179688 159.855469 C 555.175781 162.253906 559.109375 164.746094 562.980469 167.335938 C 566.855469 169.925781 570.664062 172.605469 574.402344 175.382812 C 578.144531 178.160156 581.816406 181.027344 585.417969 183.984375 C 589.015625 186.941406 592.542969 189.984375 595.996094 193.113281 C 599.445312 196.246094 602.816406 199.457031 606.113281 202.753906 C 609.40625 206.050781 612.617188 209.425781 615.746094 212.878906 C 618.871094 216.332031 621.914062 219.859375 624.871094 223.460938 C 627.824219 227.066406 630.6875 230.738281 633.464844 234.484375 C 636.238281 238.226562 638.921875 242.035156 641.507812 245.910156 C 644.097656 249.789062 646.585938 253.722656 648.980469 257.722656 C 651.375 261.71875 653.671875 265.773438 655.867188 269.886719 C 658.0625 273.996094 660.15625 278.15625 662.148438 282.371094 C 664.140625 286.585938 666.027344 290.84375 667.808594 295.152344 C 669.59375 299.457031 671.269531 303.804688 672.835938 308.191406 C 674.40625 312.582031 675.867188 317.007812 677.21875 321.464844 C 678.570312 325.925781 679.8125 330.417969 680.945312 334.9375 C 682.078125 339.460938 683.097656 344.007812 684.003906 348.578125 C 684.914062 353.148438 685.710938 357.742188 686.394531 362.351562 C 687.078125 366.960938 687.648438 371.585938 688.105469 376.226562 C 688.5625 380.863281 688.902344 385.511719 689.132812 390.164062 C 689.359375 394.820312 689.472656 399.480469 689.472656 404.140625 Z M 689.472656 404.140625 " fill-opacity="1" fill-rule="nonzero"/></g><g clip-path="url(#e2f4081249)"><path fill="#302545" d="M 680.816406 695.109375 L 128.898438 695.109375 C 128.898438 695.109375 128.898438 581.066406 168.320312 554.765625 C 189.5625 540.589844 256.617188 515.863281 313.902344 496.089844 C 362.960938 479.15625 404.855469 465.847656 404.855469 465.847656 C 404.855469 465.847656 446.652344 479.164062 495.59375 496.027344 C 552.957031 515.808594 620.128906 540.574219 641.394531 554.765625 C 680.816406 581.066406 680.816406 695.109375 680.816406 695.109375 Z M 680.816406 695.109375 " fill-opacity="1" fill-rule="nonzero"/></g><path fill="#302545" d="M 564.832031 489.847656 C 564.832031 491.355469 564.765625 492.867188 564.636719 494.375 C 564.507812 495.886719 564.3125 497.394531 564.054688 498.894531 C 563.796875 500.398438 563.472656 501.898438 563.085938 503.394531 C 562.699219 504.890625 562.246094 506.378906 561.730469 507.859375 C 561.214844 509.339844 560.636719 510.816406 559.996094 512.28125 C 559.355469 513.746094 558.652344 515.203125 557.886719 516.648438 C 557.117188 518.09375 556.289062 519.527344 555.402344 520.953125 C 554.511719 522.375 553.5625 523.785156 552.550781 525.179688 C 551.542969 526.574219 550.472656 527.957031 549.34375 529.324219 C 548.214844 530.6875 547.027344 532.039062 545.785156 533.371094 C 544.539062 534.703125 543.238281 536.019531 541.882812 537.3125 C 540.523438 538.609375 539.113281 539.886719 537.644531 541.144531 C 536.179688 542.398438 534.660156 543.632812 533.085938 544.847656 C 531.511719 546.0625 529.890625 547.253906 528.214844 548.421875 C 526.539062 549.589844 524.816406 550.734375 523.042969 551.851562 C 521.269531 552.972656 519.449219 554.066406 517.582031 555.132812 C 515.71875 556.203125 513.804688 557.246094 511.851562 558.257812 C 509.894531 559.273438 507.894531 560.261719 505.855469 561.21875 C 503.8125 562.179688 501.734375 563.109375 499.613281 564.007812 C 497.492188 564.90625 495.335938 565.777344 493.140625 566.617188 C 490.945312 567.457031 488.714844 568.265625 486.449219 569.042969 C 484.1875 569.820312 481.890625 570.5625 479.5625 571.277344 C 477.234375 571.988281 474.875 572.667969 472.488281 573.3125 C 470.101562 573.960938 467.691406 574.570312 465.25 575.148438 C 462.8125 575.726562 460.347656 576.273438 457.863281 576.78125 C 455.378906 577.289062 452.871094 577.761719 450.34375 578.203125 C 447.820312 578.640625 445.277344 579.042969 442.714844 579.410156 C 440.152344 579.777344 437.578125 580.109375 434.988281 580.402344 C 432.398438 580.699219 429.800781 580.957031 427.1875 581.179688 C 424.578125 581.398438 421.957031 581.585938 419.332031 581.734375 C 416.703125 581.882812 414.070312 581.992188 411.433594 582.066406 C 408.796875 582.140625 406.160156 582.179688 403.519531 582.179688 C 400.878906 582.179688 398.242188 582.140625 395.605469 582.066406 C 392.96875 581.992188 390.335938 581.882812 387.707031 581.734375 C 385.082031 581.585938 382.460938 581.398438 379.847656 581.179688 C 377.238281 580.957031 374.636719 580.699219 372.046875 580.402344 C 369.460938 580.109375 366.882812 579.777344 364.324219 579.410156 C 361.761719 579.042969 359.21875 578.640625 356.691406 578.203125 C 354.167969 577.761719 351.660156 577.289062 349.175781 576.78125 C 346.6875 576.273438 344.226562 575.726562 341.789062 575.148438 C 339.347656 574.570312 336.9375 573.960938 334.550781 573.3125 C 332.164062 572.667969 329.804688 571.988281 327.476562 571.277344 C 325.148438 570.5625 322.851562 569.820312 320.585938 569.042969 C 318.324219 568.265625 316.09375 567.457031 313.898438 566.617188 C 311.703125 565.777344 309.546875 564.90625 307.425781 564.007812 C 305.304688 563.109375 303.222656 562.179688 301.183594 561.21875 C 299.144531 560.261719 297.144531 559.273438 295.1875 558.257812 C 293.230469 557.246094 291.320312 556.203125 289.453125 555.132812 C 287.585938 554.066406 285.765625 552.972656 283.996094 551.851562 C 282.222656 550.734375 280.496094 549.589844 278.824219 548.421875 C 277.148438 547.253906 275.523438 546.0625 273.953125 544.847656 C 272.378906 543.632812 270.859375 542.398438 269.394531 541.144531 C 267.925781 539.886719 266.515625 538.609375 265.15625 537.3125 C 263.800781 536.019531 262.5 534.703125 261.253906 533.371094 C 260.007812 532.039062 258.824219 530.6875 257.695312 529.324219 C 256.566406 527.957031 255.496094 526.574219 254.484375 525.179688 C 253.476562 523.785156 252.527344 522.375 251.636719 520.953125 C 250.746094 519.527344 249.917969 518.09375 249.152344 516.648438 C 248.386719 515.203125 247.683594 513.746094 247.039062 512.28125 C 246.398438 510.816406 245.820312 509.339844 245.304688 507.859375 C 244.792969 506.378906 244.339844 504.890625 243.953125 503.394531 C 243.566406 501.898438 243.242188 500.398438 242.984375 498.894531 C 242.726562 497.394531 242.53125 495.886719 242.402344 494.375 C 242.269531 492.867188 242.207031 491.355469 242.207031 489.847656 C 242.207031 488.335938 242.269531 486.824219 242.402344 485.316406 C 242.53125 483.804688 242.726562 482.300781 242.984375 480.796875 C 243.242188 479.292969 243.566406 477.792969 243.953125 476.296875 C 244.339844 474.804688 244.792969 473.316406 245.304688 471.832031 C 245.820312 470.351562 246.398438 468.878906 247.039062 467.410156 C 247.683594 465.945312 248.386719 464.488281 249.152344 463.042969 C 249.917969 461.597656 250.746094 460.164062 251.636719 458.742188 C 252.527344 457.316406 253.476562 455.910156 254.484375 454.511719 C 255.496094 453.117188 256.566406 451.734375 257.695312 450.371094 C 258.824219 449.003906 260.007812 447.652344 261.253906 446.320312 C 262.5 444.988281 263.800781 443.675781 265.15625 442.378906 C 266.515625 441.082031 267.925781 439.804688 269.394531 438.550781 C 270.859375 437.292969 272.378906 436.058594 273.953125 434.84375 C 275.523438 433.628906 277.148438 432.441406 278.824219 431.273438 C 280.496094 430.105469 282.222656 428.960938 283.996094 427.839844 C 285.765625 426.71875 287.585938 425.625 289.453125 424.558594 C 291.320312 423.488281 293.230469 422.449219 295.1875 421.433594 C 297.144531 420.417969 299.144531 419.429688 301.183594 418.472656 C 303.222656 417.515625 305.304688 416.585938 307.425781 415.683594 C 309.546875 414.785156 311.703125 413.914062 313.898438 413.074219 C 316.09375 412.234375 318.324219 411.425781 320.585938 410.652344 C 322.851562 409.875 325.148438 409.128906 327.476562 408.417969 C 329.804688 407.703125 332.164062 407.027344 334.550781 406.378906 C 336.9375 405.734375 339.347656 405.121094 341.789062 404.542969 C 344.226562 403.964844 346.6875 403.421875 349.175781 402.910156 C 351.660156 402.402344 354.167969 401.929688 356.691406 401.492188 C 359.21875 401.050781 361.761719 400.648438 364.324219 400.28125 C 366.882812 399.914062 369.460938 399.582031 372.046875 399.289062 C 374.636719 398.992188 377.238281 398.734375 379.847656 398.515625 C 382.460938 398.292969 385.082031 398.105469 387.707031 397.960938 C 390.335938 397.8125 392.96875 397.699219 395.605469 397.625 C 398.242188 397.550781 400.878906 397.515625 403.519531 397.515625 C 406.160156 397.515625 408.796875 397.550781 411.433594 397.625 C 414.070312 397.699219 416.703125 397.8125 419.332031 397.960938 C 421.957031 398.105469 424.578125 398.292969 427.1875 398.515625 C 429.800781 398.734375 432.398438 398.992188 434.988281 399.289062 C 437.578125 399.582031 440.152344 399.914062 442.714844 400.28125 C 445.277344 400.648438 447.820312 401.050781 450.34375 401.492188 C 452.871094 401.929688 455.378906 402.402344 457.863281 402.910156 C 460.347656 403.421875 462.8125 403.964844 465.25 404.542969 C 467.691406 405.121094 470.101562 405.734375 472.488281 406.378906 C 474.875 407.027344 477.234375 407.703125 479.5625 408.417969 C 481.890625 409.128906 484.1875 409.875 486.449219 410.652344 C 488.714844 411.425781 490.945312 412.234375 493.140625 413.074219 C 495.335938 413.914062 497.492188 414.785156 499.613281 415.683594 C 501.734375 416.585938 503.8125 417.515625 505.855469 418.472656 C 507.894531 419.429688 509.894531 420.417969 511.851562 421.433594 C 513.804688 422.449219 515.71875 423.488281 517.582031 424.558594 C 519.449219 425.625 521.269531 426.71875 523.042969 427.839844 C 524.816406 428.960938 526.539062 430.105469 528.214844 431.273438 C 529.890625 432.441406 531.511719 433.628906 533.085938 434.84375 C 534.660156 436.058594 536.179688 437.292969 537.644531 438.550781 C 539.113281 439.804688 540.523438 441.082031 541.882812 442.378906 C 543.238281 443.675781 544.539062 444.988281 545.785156 446.320312 C 547.027344 447.652344 548.214844 449.003906 549.34375 450.371094 C 550.472656 451.734375 551.542969 453.117188 552.550781 454.511719 C 553.5625 455.910156 554.511719 457.316406 555.402344 458.742188 C 556.289062 460.164062 557.117188 461.597656 557.886719 463.042969 C 558.652344 464.488281 559.355469 465.945312 559.996094 467.410156 C 560.636719 468.878906 561.214844 470.351562 561.730469 471.832031 C 562.246094 473.316406 562.699219 474.804688 563.085938 476.296875 C 563.472656 477.792969 563.796875 479.292969 564.054688 480.796875 C 564.3125 482.300781 564.507812 483.804688 564.636719 485.316406 C 564.765625 486.824219 564.832031 488.335938 564.832031 489.847656 Z M 564.832031 489.847656 " fill-opacity="1" fill-rule="nonzero"/><path fill="#3d2031" d="M 487.28125 336.058594 C 487.28125 336.058594 522.230469 362.246094 512.328125 374.628906 C 502.425781 387.011719 473.039062 368.058594 473.039062 368.058594 Z M 487.28125 336.058594 " fill-opacity="1" fill-rule="nonzero"/><path fill="#3d2031" d="M 478.851562 365.828125 C 478.851562 365.828125 510.675781 395.738281 499.445312 406.9375 C 488.214844 418.136719 461.09375 396.042969 461.09375 396.042969 Z M 478.851562 365.828125 " fill-opacity="1" fill-rule="nonzero"/><path fill="#3d2031" d="M 463.902344 389.910156 C 463.902344 389.910156 487.015625 426.972656 473.296875 434.921875 C 459.574219 442.871094 439.046875 414.558594 439.046875 414.558594 Z M 463.902344 389.910156 " fill-opacity="1" fill-rule="nonzero"/><path fill="#3d2031" d="M 307.945312 346.136719 C 307.945312 346.136719 276.152344 376.078125 287.390625 387.308594 C 298.628906 398.539062 325.695312 376.34375 325.695312 376.34375 Z M 307.945312 346.136719 " fill-opacity="1" fill-rule="nonzero"/><path fill="#3d2031" d="M 319.652344 374.777344 C 319.652344 374.777344 291.367188 408.054688 303.789062 417.933594 C 316.210938 427.808594 340.675781 402.816406 340.675781 402.816406 Z M 319.652344 374.777344 " fill-opacity="1" fill-rule="nonzero"/><path fill="#3d2031" d="M 337.210938 397.027344 C 337.210938 397.027344 318.378906 436.449219 332.90625 442.816406 C 347.429688 449.183594 364.667969 418.761719 364.667969 418.761719 Z M 337.210938 397.027344 " fill-opacity="1" fill-rule="nonzero"/><path fill="#ffffff" d="M 356.722656 674.484375 L 356.503906 674.484375 C 356.09375 674.457031 355.707031 674.351562 355.339844 674.171875 C 354.972656 673.988281 354.65625 673.742188 354.386719 673.433594 C 354.117188 673.121094 353.917969 672.773438 353.789062 672.386719 C 353.660156 671.996094 353.609375 671.597656 353.636719 671.1875 L 360.574219 571.824219 C 360.605469 571.417969 360.714844 571.035156 360.902344 570.675781 C 361.085938 570.3125 361.332031 570 361.640625 569.734375 C 361.949219 569.472656 362.296875 569.273438 362.683594 569.148438 C 363.066406 569.019531 363.464844 568.96875 363.867188 569 C 364.273438 569.027344 364.660156 569.128906 365.023438 569.3125 C 365.386719 569.492188 365.703125 569.734375 365.972656 570.039062 C 366.242188 570.34375 366.441406 570.6875 366.574219 571.070312 C 366.707031 571.453125 366.761719 571.847656 366.742188 572.253906 L 359.796875 671.613281 C 359.769531 672 359.675781 672.375 359.507812 672.726562 C 359.339844 673.078125 359.113281 673.390625 358.824219 673.65625 C 358.539062 673.921875 358.214844 674.128906 357.851562 674.269531 C 357.488281 674.414062 357.113281 674.484375 356.722656 674.484375 Z M 356.722656 674.484375 " fill-opacity="1" fill-rule="nonzero"/><path fill="#ffffff" d="M 447.703125 674.484375 C 447.3125 674.484375 446.933594 674.414062 446.570312 674.269531 C 446.207031 674.128906 445.882812 673.921875 445.597656 673.65625 C 445.3125 673.390625 445.085938 673.078125 444.917969 672.726562 C 444.75 672.375 444.652344 672 444.625 671.613281 L 437.683594 572.246094 C 437.652344 571.839844 437.703125 571.4375 437.835938 571.050781 C 437.964844 570.660156 438.164062 570.3125 438.429688 570 C 438.699219 569.691406 439.019531 569.445312 439.382812 569.261719 C 439.75 569.078125 440.140625 568.972656 440.546875 568.945312 C 440.957031 568.917969 441.355469 568.96875 441.742188 569.097656 C 442.132812 569.226562 442.480469 569.425781 442.789062 569.695312 C 443.097656 569.964844 443.34375 570.285156 443.527344 570.652344 C 443.710938 571.019531 443.816406 571.40625 443.84375 571.816406 L 450.785156 671.179688 C 450.808594 671.589844 450.753906 671.984375 450.621094 672.371094 C 450.488281 672.757812 450.289062 673.105469 450.023438 673.410156 C 449.753906 673.71875 449.4375 673.964844 449.074219 674.152344 C 448.710938 674.335938 448.328125 674.445312 447.921875 674.476562 Z M 447.703125 674.484375 " fill-opacity="1" fill-rule="nonzero"/><path fill="#3d2031" d="M 506.605469 300.976562 C 506.605469 300.976562 519.867188 270.148438 515.035156 235.234375 C 507.171875 178.523438 383.664062 151.175781 346 165.421875 C 308.335938 179.667969 339.738281 242.957031 339.738281 242.957031 Z M 506.605469 300.976562 " fill-opacity="1" fill-rule="nonzero"/><path fill="#3d2031" d="M 287.515625 313.289062 C 287.515625 313.289062 271.363281 287.003906 272.246094 251.816406 C 273.695312 194.578125 392.90625 150.6875 431.914062 160.636719 C 470.925781 170.582031 446.855469 236.933594 446.855469 236.933594 Z M 287.515625 313.289062 " fill-opacity="1" fill-rule="nonzero"/><path fill="#fe9780" d="M 498.199219 286.050781 C 498.199219 286.050781 519.566406 269.84375 536.417969 287.757812 C 553.269531 305.667969 535.636719 350.796875 501.894531 351.839844 C 468.152344 352.878906 472.566406 317.667969 472.566406 317.667969 Z M 498.199219 286.050781 " fill-opacity="1" fill-rule="nonzero"/><path fill="#fe9780" d="M 294.175781 297.515625 C 294.175781 297.515625 271.136719 283.808594 256.390625 303.5 C 241.644531 323.1875 264.214844 366.0625 297.871094 363.304688 C 331.527344 360.546875 323.199219 326.0625 323.199219 326.0625 Z M 294.175781 297.515625 " fill-opacity="1" fill-rule="nonzero"/><path fill="#db6356" d="M 500.273438 326.0625 C 500.101562 326.0625 499.929688 326.039062 499.757812 326 C 499.472656 325.933594 499.210938 325.8125 498.976562 325.644531 C 498.738281 325.472656 498.542969 325.261719 498.390625 325.011719 C 498.234375 324.765625 498.136719 324.496094 498.089844 324.207031 C 498.042969 323.917969 498.054688 323.628906 498.121094 323.34375 C 499.3125 318.859375 501.097656 314.621094 503.476562 310.632812 C 508.710938 301.925781 515.867188 296.699219 524.171875 295.527344 C 524.464844 295.472656 524.761719 295.476562 525.054688 295.542969 C 525.351562 295.609375 525.621094 295.730469 525.863281 295.90625 C 526.109375 296.082031 526.308594 296.296875 526.464844 296.554688 C 526.621094 296.816406 526.71875 297.09375 526.761719 297.390625 C 526.800781 297.691406 526.785156 297.984375 526.703125 298.277344 C 526.625 298.566406 526.492188 298.832031 526.304688 299.066406 C 526.117188 299.304688 525.894531 299.492188 525.628906 299.636719 C 525.363281 299.78125 525.082031 299.867188 524.78125 299.894531 C 507.882812 302.285156 502.433594 324.175781 502.378906 324.371094 C 502.324219 324.609375 502.230469 324.832031 502.101562 325.039062 C 501.96875 325.246094 501.808594 325.425781 501.617188 325.578125 C 501.425781 325.730469 501.214844 325.851562 500.988281 325.933594 C 500.757812 326.015625 500.519531 326.058594 500.273438 326.0625 Z M 500.273438 326.0625 " fill-opacity="1" fill-rule="nonzero"/><path fill="#db6356" d="M 505.582031 313.6875 C 505.324219 313.6875 505.070312 313.644531 504.828125 313.558594 C 504.585938 313.46875 504.363281 313.34375 504.164062 313.179688 C 503.964844 313.011719 503.800781 312.820312 503.667969 312.59375 C 503.539062 312.371094 503.449219 312.132812 503.402344 311.878906 C 503.355469 311.621094 503.355469 311.367188 503.398438 311.113281 C 503.441406 310.855469 503.527344 310.617188 503.652344 310.390625 C 503.78125 310.167969 503.945312 309.96875 504.140625 309.800781 C 504.335938 309.632812 504.558594 309.503906 504.800781 309.414062 C 512.210938 306.625 519.230469 306.625 525.648438 309.414062 C 525.917969 309.527344 526.15625 309.691406 526.359375 309.902344 C 526.566406 310.113281 526.722656 310.351562 526.828125 310.625 C 526.9375 310.898438 526.992188 311.183594 526.984375 311.476562 C 526.980469 311.769531 526.921875 312.050781 526.804688 312.320312 C 526.6875 312.589844 526.523438 312.824219 526.3125 313.03125 C 526.101562 313.234375 525.863281 313.390625 525.589844 313.496094 C 525.316406 313.605469 525.03125 313.65625 524.738281 313.652344 C 524.445312 313.648438 524.164062 313.585938 523.898438 313.46875 C 518.566406 311.160156 512.65625 311.191406 506.347656 313.5625 C 506.101562 313.648438 505.84375 313.691406 505.582031 313.6875 Z M 505.582031 313.6875 " fill-opacity="1" fill-rule="nonzero"/><path fill="#db6356" d="M 298.136719 337.425781 C 297.671875 337.425781 297.25 337.292969 296.867188 337.023438 C 296.488281 336.757812 296.21875 336.402344 296.0625 335.960938 C 295.945312 335.640625 288.089844 314.636719 271.0625 314.160156 C 270.773438 314.148438 270.492188 314.085938 270.222656 313.964844 C 269.957031 313.847656 269.722656 313.679688 269.523438 313.46875 C 269.320312 313.253906 269.167969 313.011719 269.0625 312.738281 C 268.960938 312.464844 268.910156 312.179688 268.917969 311.886719 C 268.933594 311.597656 269 311.320312 269.121094 311.054688 C 269.242188 310.789062 269.410156 310.558594 269.621094 310.359375 C 269.832031 310.15625 270.074219 310.003906 270.347656 309.898438 C 270.617188 309.796875 270.898438 309.746094 271.191406 309.75 C 279.570312 309.984375 287.265625 314.371094 293.441406 322.4375 C 296.261719 326.128906 298.519531 330.140625 300.210938 334.464844 C 300.3125 334.742188 300.355469 335.027344 300.339844 335.316406 C 300.328125 335.609375 300.257812 335.890625 300.136719 336.15625 C 300.011719 336.417969 299.839844 336.652344 299.625 336.847656 C 299.410156 337.046875 299.164062 337.195312 298.890625 337.292969 C 298.644531 337.378906 298.394531 337.425781 298.136719 337.425781 Z M 298.136719 337.425781 " fill-opacity="1" fill-rule="nonzero"/><path fill="#db6356" d="M 272.386719 327.785156 C 272.144531 327.789062 271.90625 327.75 271.675781 327.671875 C 271.441406 327.597656 271.230469 327.484375 271.035156 327.335938 C 270.839844 327.1875 270.675781 327.011719 270.539062 326.808594 C 270.40625 326.605469 270.304688 326.386719 270.242188 326.152344 C 270.179688 325.914062 270.15625 325.675781 270.175781 325.433594 C 270.191406 325.1875 270.246094 324.953125 270.34375 324.730469 C 270.4375 324.503906 270.566406 324.300781 270.726562 324.117188 C 270.890625 323.9375 271.078125 323.785156 271.292969 323.667969 C 277.355469 320.1875 284.332031 319.40625 292.007812 321.316406 C 292.292969 321.386719 292.550781 321.511719 292.789062 321.6875 C 293.023438 321.863281 293.214844 322.074219 293.363281 322.328125 C 293.515625 322.578125 293.609375 322.847656 293.652344 323.136719 C 293.695312 323.429688 293.679688 323.714844 293.609375 324 C 293.539062 324.285156 293.414062 324.542969 293.238281 324.777344 C 293.066406 325.011719 292.851562 325.207031 292.601562 325.355469 C 292.347656 325.503906 292.078125 325.601562 291.789062 325.644531 C 291.5 325.6875 291.214844 325.671875 290.929688 325.601562 C 284.394531 323.949219 278.523438 324.582031 273.484375 327.472656 C 273.144531 327.671875 272.78125 327.777344 272.386719 327.785156 Z M 272.386719 327.785156 " fill-opacity="1" fill-rule="nonzero"/><path fill="#fe9780" d="M 462.886719 488.035156 C 424.199219 522.664062 385.515625 522.664062 346.828125 488.035156 L 350.070312 460.882812 L 359.882812 379.429688 L 359.921875 379.039062 L 450.558594 379.039062 L 456.914062 435.328125 Z M 462.886719 488.035156 " fill-opacity="1" fill-rule="nonzero"/><path fill="#aa534f" d="M 456.9375 435.335938 C 456.9375 435.335938 443.585938 455.449219 398.351562 461.390625 C 382.242188 463.417969 366.15625 463.25 350.09375 460.882812 L 359.90625 379.429688 L 426.113281 393.683594 Z M 456.9375 435.335938 " fill-opacity="1" fill-rule="nonzero"/><path fill="#fe9780" d="M 479.550781 186.433594 L 390.558594 191.4375 L 301.542969 196.441406 C 301.542969 196.441406 278.945312 323.832031 305.457031 386.980469 C 342.398438 474.941406 470.0625 467.769531 496.925781 376.21875 C 516.257812 310.492188 479.550781 186.433594 479.550781 186.433594 Z M 479.550781 186.433594 " fill-opacity="1" fill-rule="nonzero"/><path fill="#302545" d="M 362.953125 304.886719 C 363 305.703125 362.996094 306.511719 362.941406 307.316406 C 362.886719 308.121094 362.785156 308.90625 362.632812 309.667969 C 362.484375 310.433594 362.285156 311.160156 362.042969 311.855469 C 361.800781 312.546875 361.519531 313.191406 361.195312 313.789062 C 360.871094 314.386719 360.511719 314.921875 360.117188 315.398438 C 359.722656 315.875 359.300781 316.28125 358.851562 316.617188 C 358.40625 316.957031 357.9375 317.21875 357.453125 317.40625 C 356.964844 317.59375 356.472656 317.699219 355.964844 317.730469 C 355.460938 317.757812 354.957031 317.707031 354.453125 317.574219 C 353.949219 317.441406 353.457031 317.234375 352.972656 316.949219 C 352.492188 316.664062 352.027344 316.304688 351.582031 315.875 C 351.136719 315.449219 350.71875 314.953125 350.332031 314.398438 C 349.941406 313.84375 349.589844 313.234375 349.269531 312.570312 C 348.953125 311.910156 348.675781 311.207031 348.441406 310.464844 C 348.203125 309.722656 348.015625 308.957031 347.871094 308.164062 C 347.730469 307.367188 347.636719 306.566406 347.589844 305.75 C 347.542969 304.933594 347.546875 304.125 347.601562 303.320312 C 347.65625 302.515625 347.757812 301.730469 347.90625 300.96875 C 348.058594 300.203125 348.253906 299.476562 348.496094 298.78125 C 348.738281 298.089844 349.023438 297.445312 349.347656 296.847656 C 349.671875 296.253906 350.03125 295.714844 350.425781 295.238281 C 350.820312 294.761719 351.238281 294.355469 351.6875 294.019531 C 352.136719 293.679688 352.605469 293.417969 353.089844 293.230469 C 353.574219 293.042969 354.070312 292.9375 354.574219 292.910156 C 355.078125 292.878906 355.582031 292.933594 356.085938 293.0625 C 356.589844 293.195312 357.085938 293.402344 357.566406 293.6875 C 358.050781 293.972656 358.515625 294.332031 358.960938 294.761719 C 359.40625 295.191406 359.820312 295.683594 360.210938 296.238281 C 360.601562 296.792969 360.953125 297.402344 361.273438 298.066406 C 361.589844 298.726562 361.867188 299.429688 362.101562 300.171875 C 362.335938 300.914062 362.527344 301.679688 362.667969 302.476562 C 362.8125 303.269531 362.90625 304.074219 362.953125 304.886719 Z M 362.953125 304.886719 " fill-opacity="1" fill-rule="nonzero"/><path fill="#302545" d="M 450.746094 299.960938 C 450.792969 300.773438 450.789062 301.585938 450.734375 302.390625 C 450.683594 303.195312 450.582031 303.980469 450.429688 304.742188 C 450.277344 305.507812 450.082031 306.234375 449.839844 306.925781 C 449.597656 307.621094 449.3125 308.265625 448.988281 308.863281 C 448.664062 309.457031 448.304688 309.996094 447.914062 310.46875 C 447.519531 310.945312 447.097656 311.355469 446.648438 311.691406 C 446.199219 312.03125 445.734375 312.292969 445.246094 312.480469 C 444.761719 312.664062 444.265625 312.773438 443.761719 312.800781 C 443.257812 312.828125 442.753906 312.777344 442.25 312.648438 C 441.746094 312.515625 441.253906 312.308594 440.769531 312.023438 C 440.285156 311.734375 439.820312 311.378906 439.375 310.949219 C 438.933594 310.519531 438.515625 310.027344 438.125 309.472656 C 437.738281 308.914062 437.382812 308.304688 437.066406 307.644531 C 436.746094 306.984375 436.46875 306.28125 436.234375 305.539062 C 436 304.796875 435.8125 304.027344 435.667969 303.234375 C 435.523438 302.441406 435.429688 301.636719 435.382812 300.824219 C 435.339844 300.007812 435.34375 299.199219 435.394531 298.394531 C 435.449219 297.589844 435.550781 296.804688 435.703125 296.039062 C 435.855469 295.277344 436.050781 294.546875 436.292969 293.855469 C 436.535156 293.160156 436.816406 292.515625 437.140625 291.921875 C 437.46875 291.324219 437.824219 290.789062 438.21875 290.3125 C 438.613281 289.835938 439.035156 289.429688 439.484375 289.089844 C 439.933594 288.753906 440.398438 288.492188 440.886719 288.304688 C 441.371094 288.117188 441.867188 288.011719 442.371094 287.980469 C 442.875 287.953125 443.378906 288.003906 443.882812 288.136719 C 444.386719 288.265625 444.878906 288.476562 445.363281 288.761719 C 445.847656 289.046875 446.3125 289.40625 446.753906 289.832031 C 447.199219 290.261719 447.617188 290.753906 448.007812 291.3125 C 448.394531 291.867188 448.75 292.476562 449.066406 293.136719 C 449.386719 293.800781 449.660156 294.503906 449.898438 295.242188 C 450.132812 295.984375 450.320312 296.753906 450.464844 297.546875 C 450.609375 298.339844 450.703125 299.144531 450.746094 299.960938 Z M 450.746094 299.960938 " fill-opacity="1" fill-rule="nonzero"/><path fill="#db6356" d="M 400.8125 359.027344 C 399.019531 359.070312 397.285156 358.777344 395.609375 358.15625 C 393.929688 357.535156 392.421875 356.628906 391.089844 355.433594 C 388.6875 353.167969 383.859375 346.558594 390.839844 333.941406 C 395.902344 324.808594 394.511719 311.066406 394.496094 310.921875 C 394.464844 310.632812 394.488281 310.347656 394.574219 310.066406 C 394.65625 309.785156 394.789062 309.527344 394.972656 309.300781 C 395.15625 309.074219 395.378906 308.890625 395.636719 308.75 C 395.894531 308.609375 396.167969 308.523438 396.457031 308.492188 C 396.75 308.460938 397.035156 308.488281 397.316406 308.570312 C 397.597656 308.65625 397.851562 308.789062 398.078125 308.972656 C 398.308594 309.160156 398.492188 309.378906 398.628906 309.636719 C 398.769531 309.894531 398.855469 310.171875 398.886719 310.460938 C 398.949219 311.082031 400.449219 325.742188 394.699219 336.082031 C 390.839844 343.058594 390.628906 348.941406 394.109375 352.214844 C 397.4375 355.347656 403.550781 355.402344 408.324219 352.355469 C 408.570312 352.230469 408.828125 352.152344 409.105469 352.121094 C 409.378906 352.09375 409.648438 352.117188 409.914062 352.1875 C 410.179688 352.261719 410.425781 352.378906 410.648438 352.542969 C 410.867188 352.707031 411.054688 352.90625 411.199219 353.140625 C 411.347656 353.375 411.449219 353.625 411.5 353.894531 C 411.554688 354.167969 411.554688 354.4375 411.507812 354.710938 C 411.457031 354.980469 411.359375 355.234375 411.21875 355.472656 C 411.074219 355.707031 410.890625 355.90625 410.671875 356.074219 C 409.203125 357.023438 407.628906 357.75 405.949219 358.25 C 404.273438 358.753906 402.5625 359.011719 400.8125 359.027344 Z M 400.8125 359.027344 " fill-opacity="1" fill-rule="nonzero"/><path fill="#db6356" d="M 415.652344 415.332031 C 415.378906 415.332031 415.117188 415.28125 414.863281 415.1875 C 414.609375 415.089844 414.382812 414.949219 414.179688 414.769531 C 413.980469 414.585938 413.816406 414.375 413.691406 414.136719 C 413.566406 413.894531 413.492188 413.636719 413.460938 413.367188 C 413.429688 413.097656 413.449219 412.832031 413.519531 412.570312 C 413.585938 412.308594 413.699219 412.066406 413.855469 411.84375 C 414.011719 411.621094 414.203125 411.4375 414.429688 411.285156 C 414.65625 411.136719 414.902344 411.03125 415.164062 410.96875 C 423.773438 409.011719 431.3125 403.042969 434.105469 400.160156 C 434.308594 399.953125 434.546875 399.789062 434.816406 399.671875 C 435.085938 399.554688 435.367188 399.496094 435.65625 399.492188 C 435.949219 399.488281 436.234375 399.539062 436.503906 399.648438 C 436.777344 399.753906 437.019531 399.910156 437.230469 400.113281 C 437.441406 400.320312 437.601562 400.554688 437.71875 400.824219 C 437.835938 401.09375 437.894531 401.375 437.898438 401.667969 C 437.902344 401.960938 437.851562 402.242188 437.746094 402.515625 C 437.636719 402.789062 437.480469 403.03125 437.277344 403.238281 C 434.144531 406.449219 425.746094 413.09375 416.144531 415.277344 C 415.980469 415.3125 415.816406 415.328125 415.652344 415.332031 Z M 415.652344 415.332031 " fill-opacity="1" fill-rule="nonzero"/><path fill="#302545" d="M 336.800781 279.683594 C 335.855469 280.136719 335.097656 279.164062 335.355469 278.117188 C 338.484375 265.082031 356.535156 259.726562 363.796875 265.9375 C 370.574219 271.730469 356.753906 271.535156 346.578125 275.476562 C 341.835938 277.285156 338.6875 278.773438 336.800781 279.683594 Z M 336.800781 279.683594 " fill-opacity="1" fill-rule="nonzero"/><path fill="#302545" d="M 455.535156 273.007812 C 456.523438 273.351562 457.171875 272.304688 456.796875 271.269531 C 452.265625 258.660156 433.691406 255.363281 427.171875 262.347656 C 421.089844 268.875 434.78125 267.136719 445.363281 269.90625 C 450.253906 271.191406 453.554688 272.320312 455.535156 273.007812 Z M 455.535156 273.007812 " fill-opacity="1" fill-rule="nonzero"/><path fill="#3d2031" d="M 294.5 330.652344 C 313.652344 289.558594 315.535156 251.550781 307.648438 196.097656 L 281.859375 189.832031 Z M 294.5 330.652344 " fill-opacity="1" fill-rule="nonzero"/><path fill="#3d2031" d="M 502.417969 318.96875 C 478.78125 280.277344 472.675781 242.714844 474.289062 186.730469 L 499.21875 177.589844 Z M 502.417969 318.96875 " fill-opacity="1" fill-rule="nonzero"/><path fill="#f7816d" d="M 357.035156 336.136719 C 357.058594 336.59375 356.96875 337.050781 356.765625 337.511719 C 356.5625 337.972656 356.246094 338.429688 355.820312 338.875 C 355.390625 339.324219 354.863281 339.753906 354.230469 340.171875 C 353.597656 340.589844 352.875 340.980469 352.0625 341.351562 C 351.246094 341.722656 350.359375 342.0625 349.394531 342.371094 C 348.429688 342.679688 347.410156 342.949219 346.332031 343.1875 C 345.253906 343.421875 344.140625 343.617188 342.992188 343.769531 C 341.84375 343.925781 340.679688 344.035156 339.503906 344.101562 C 338.328125 344.167969 337.160156 344.1875 336 344.164062 C 334.84375 344.140625 333.714844 344.070312 332.617188 343.957031 C 331.519531 343.84375 330.476562 343.6875 329.484375 343.488281 C 328.492188 343.289062 327.570312 343.050781 326.71875 342.773438 C 325.871094 342.496094 325.105469 342.1875 324.433594 341.84375 C 323.757812 341.5 323.183594 341.132812 322.707031 340.734375 C 322.234375 340.335938 321.871094 339.921875 321.617188 339.484375 C 321.359375 339.050781 321.222656 338.605469 321.195312 338.148438 C 321.167969 337.691406 321.257812 337.230469 321.464844 336.769531 C 321.667969 336.308594 321.984375 335.855469 322.410156 335.40625 C 322.835938 334.960938 323.367188 334.527344 324 334.113281 C 324.632812 333.695312 325.355469 333.300781 326.167969 332.933594 C 326.980469 332.5625 327.871094 332.222656 328.835938 331.914062 C 329.796875 331.605469 330.820312 331.332031 331.898438 331.097656 C 332.972656 330.859375 334.085938 330.667969 335.234375 330.511719 C 336.386719 330.359375 337.546875 330.25 338.722656 330.183594 C 339.902344 330.117188 341.070312 330.09375 342.226562 330.121094 C 343.386719 330.144531 344.515625 330.214844 345.609375 330.328125 C 346.707031 330.441406 347.753906 330.597656 348.746094 330.796875 C 349.738281 330.996094 350.660156 331.234375 351.507812 331.507812 C 352.359375 331.785156 353.121094 332.097656 353.796875 332.4375 C 354.472656 332.78125 355.046875 333.152344 355.519531 333.550781 C 355.992188 333.945312 356.359375 334.363281 356.613281 334.796875 C 356.867188 335.234375 357.007812 335.679688 357.035156 336.136719 Z M 357.035156 336.136719 " fill-opacity="1" fill-rule="nonzero"/><path fill="#f7816d" d="M 479.144531 329.289062 C 479.171875 329.746094 479.082031 330.203125 478.875 330.664062 C 478.671875 331.128906 478.355469 331.582031 477.929688 332.027344 C 477.503906 332.476562 476.972656 332.90625 476.339844 333.324219 C 475.707031 333.742188 474.984375 334.132812 474.171875 334.503906 C 473.359375 334.875 472.46875 335.214844 471.503906 335.523438 C 470.539062 335.832031 469.519531 336.101562 468.441406 336.339844 C 467.367188 336.574219 466.253906 336.769531 465.105469 336.925781 C 463.953125 337.078125 462.792969 337.1875 461.617188 337.253906 C 460.4375 337.320312 459.269531 337.339844 458.113281 337.316406 C 456.953125 337.292969 455.824219 337.222656 454.726562 337.109375 C 453.632812 336.996094 452.585938 336.839844 451.59375 336.640625 C 450.601562 336.441406 449.679688 336.203125 448.832031 335.925781 C 447.980469 335.648438 447.21875 335.339844 446.542969 334.996094 C 445.867188 334.652344 445.292969 334.285156 444.820312 333.886719 C 444.347656 333.488281 443.980469 333.074219 443.726562 332.636719 C 443.472656 332.203125 443.332031 331.757812 443.304688 331.300781 C 443.28125 330.84375 443.371094 330.382812 443.574219 329.921875 C 443.777344 329.460938 444.09375 329.007812 444.519531 328.558594 C 444.949219 328.113281 445.476562 327.679688 446.109375 327.265625 C 446.742188 326.847656 447.464844 326.453125 448.277344 326.085938 C 449.09375 325.714844 449.980469 325.375 450.945312 325.066406 C 451.910156 324.757812 452.929688 324.484375 454.007812 324.25 C 455.085938 324.011719 456.199219 323.820312 457.347656 323.664062 C 458.496094 323.511719 459.660156 323.402344 460.835938 323.335938 C 462.011719 323.269531 463.179688 323.25 464.339844 323.273438 C 465.496094 323.296875 466.625 323.367188 467.722656 323.480469 C 468.820312 323.59375 469.863281 323.75 470.855469 323.949219 C 471.847656 324.148438 472.769531 324.386719 473.621094 324.664062 C 474.46875 324.9375 475.234375 325.25 475.90625 325.589844 C 476.582031 325.933594 477.15625 326.304688 477.632812 326.703125 C 478.105469 327.097656 478.46875 327.515625 478.722656 327.949219 C 478.980469 328.386719 479.117188 328.832031 479.144531 329.289062 Z M 479.144531 329.289062 " fill-opacity="1" fill-rule="nonzero"/><path fill="#f7f7f7" d="M 436.234375 363.4375 C 436.234375 363.4375 436.808594 375.453125 429.332031 385.835938 C 425.347656 391.390625 419.0625 396.472656 409.171875 399.019531 C 400.519531 401.25 393.46875 400.113281 387.886719 397.554688 C 376.070312 392.125 370.785156 380.324219 370.785156 380.324219 C 392.011719 380.886719 413.929688 375.757812 436.234375 363.4375 Z M 436.234375 363.4375 " fill-opacity="1" fill-rule="nonzero"/><path fill="#f04847" d="M 386.636719 118.898438 C 317.894531 122.757812 264.9375 175.289062 268.355469 236.230469 L 517.296875 222.242188 C 513.878906 161.300781 455.378906 115.027344 386.636719 118.898438 Z M 386.636719 118.898438 " fill-opacity="1" fill-rule="nonzero"/><path fill="#d13533" d="M 516.71875 250.359375 C 434.113281 236.042969 352.570312 240.625 272.082031 264.113281 C 265.820312 265.9375 259.464844 261.035156 258.226562 253.390625 L 255.136719 234.203125 C 254.015625 227.222656 257.59375 220.496094 263.324219 218.890625 C 345.460938 195.910156 436.164062 190.8125 520.359375 204.449219 C 526.238281 205.394531 530.535156 211.683594 530.214844 218.742188 L 529.304688 238.15625 C 528.914062 245.894531 523.144531 251.472656 516.71875 250.359375 Z M 516.71875 250.359375 " fill-opacity="1" fill-rule="nonzero"/><path fill="#d13533" d="M 347.054688 201.613281 C 346.824219 201.613281 346.601562 201.566406 346.386719 201.480469 C 346.171875 201.390625 345.984375 201.265625 345.820312 201.105469 C 345.652344 200.941406 345.527344 200.753906 345.433594 200.539062 C 345.34375 200.328125 345.296875 200.105469 345.292969 199.875 C 344.792969 159.65625 363.773438 132.0625 364.582031 130.90625 C 364.714844 130.714844 364.878906 130.554688 365.078125 130.429688 C 365.277344 130.304688 365.488281 130.222656 365.71875 130.183594 C 365.949219 130.144531 366.179688 130.148438 366.40625 130.199219 C 366.632812 130.25 366.84375 130.34375 367.035156 130.476562 C 367.226562 130.613281 367.382812 130.777344 367.507812 130.976562 C 367.636719 131.171875 367.71875 131.386719 367.757812 131.617188 C 367.800781 131.847656 367.792969 132.074219 367.742188 132.304688 C 367.695312 132.53125 367.601562 132.742188 367.46875 132.933594 C 367.28125 133.207031 348.332031 160.792969 348.824219 199.828125 C 348.828125 200.058594 348.785156 200.285156 348.695312 200.503906 C 348.609375 200.71875 348.484375 200.914062 348.320312 201.078125 C 348.15625 201.246094 347.96875 201.378906 347.753906 201.46875 C 347.539062 201.5625 347.3125 201.609375 347.078125 201.613281 Z M 347.054688 201.613281 " fill-opacity="1" fill-rule="nonzero"/><path fill="#d13533" d="M 295.570312 213.617188 C 295.457031 213.628906 295.339844 213.628906 295.226562 213.617188 C 294.996094 213.574219 294.785156 213.488281 294.589844 213.359375 C 294.394531 213.230469 294.230469 213.066406 294.101562 212.875 C 293.96875 212.679688 293.882812 212.46875 293.835938 212.238281 C 293.789062 212.011719 293.789062 211.78125 293.832031 211.550781 C 303.65625 161.519531 343.210938 135.296875 343.613281 135.03125 C 343.808594 134.910156 344.019531 134.832031 344.246094 134.796875 C 344.476562 134.757812 344.703125 134.765625 344.925781 134.816406 C 345.152344 134.867188 345.359375 134.957031 345.546875 135.089844 C 345.734375 135.222656 345.894531 135.386719 346.019531 135.578125 C 346.144531 135.773438 346.226562 135.980469 346.273438 136.207031 C 346.316406 136.433594 346.316406 136.660156 346.269531 136.886719 C 346.226562 137.113281 346.140625 137.324219 346.011719 137.515625 C 345.886719 137.707031 345.726562 137.871094 345.539062 138 C 345.144531 138.25 306.824219 163.714844 297.300781 212.230469 C 297.207031 212.636719 297 212.96875 296.679688 213.226562 C 296.355469 213.488281 295.984375 213.617188 295.570312 213.617188 Z M 295.570312 213.617188 " fill-opacity="1" fill-rule="nonzero"/><path fill="#d13533" d="M 435.023438 196.671875 C 434.804688 196.667969 434.597656 196.628906 434.394531 196.554688 C 434.191406 196.476562 434.007812 196.363281 433.847656 196.21875 C 433.6875 196.074219 433.554688 195.90625 433.457031 195.714844 C 433.355469 195.523438 433.292969 195.320312 433.269531 195.105469 C 429.355469 156.265625 407.441406 130.976562 407.253906 130.722656 C 407.09375 130.550781 406.972656 130.351562 406.890625 130.128906 C 406.808594 129.902344 406.777344 129.675781 406.789062 129.4375 C 406.800781 129.199219 406.859375 128.972656 406.960938 128.761719 C 407.0625 128.546875 407.203125 128.359375 407.378906 128.203125 C 407.558594 128.046875 407.757812 127.929688 407.984375 127.851562 C 408.207031 127.773438 408.4375 127.746094 408.675781 127.761719 C 408.910156 127.777344 409.136719 127.839844 409.347656 127.945312 C 409.558594 128.050781 409.742188 128.195312 409.898438 128.375 C 410.828125 129.433594 432.777344 154.722656 436.785156 194.742188 C 436.804688 194.976562 436.785156 195.203125 436.71875 195.425781 C 436.652344 195.648438 436.542969 195.851562 436.398438 196.03125 C 436.25 196.214844 436.074219 196.359375 435.871094 196.472656 C 435.667969 196.582031 435.449219 196.652344 435.21875 196.679688 Z M 435.023438 196.671875 " fill-opacity="1" fill-rule="nonzero"/><path fill="#d13533" d="M 487.539062 202.824219 C 487.15625 202.828125 486.808594 202.714844 486.496094 202.488281 C 486.1875 202.261719 485.972656 201.964844 485.859375 201.597656 C 470.941406 154.394531 430.027344 133.457031 429.613281 133.230469 C 429.378906 133.144531 429.171875 133.011719 428.992188 132.839844 C 428.8125 132.664062 428.675781 132.460938 428.585938 132.226562 C 428.492188 131.992188 428.453125 131.75 428.460938 131.5 C 428.472656 131.25 428.535156 131.011719 428.644531 130.789062 C 428.757812 130.5625 428.910156 130.371094 429.105469 130.214844 C 429.300781 130.054688 429.515625 129.941406 429.757812 129.875 C 430 129.8125 430.246094 129.796875 430.492188 129.835938 C 430.738281 129.875 430.96875 129.960938 431.179688 130.097656 C 431.601562 130.308594 473.84375 151.941406 489.207031 200.585938 C 489.277344 200.808594 489.300781 201.039062 489.28125 201.269531 C 489.257812 201.503906 489.195312 201.722656 489.085938 201.929688 C 488.980469 202.136719 488.835938 202.316406 488.65625 202.46875 C 488.480469 202.621094 488.28125 202.730469 488.058594 202.800781 C 487.886719 202.835938 487.714844 202.84375 487.539062 202.824219 Z M 487.539062 202.824219 " fill-opacity="1" fill-rule="nonzero"/><path fill="#d13533" d="M 390.871094 198.839844 C 390.644531 198.839844 390.429688 198.796875 390.21875 198.714844 C 390.007812 198.628906 389.824219 198.511719 389.660156 198.355469 C 389.496094 198.199219 389.367188 198.019531 389.273438 197.816406 C 389.175781 197.609375 389.121094 197.398438 389.109375 197.171875 L 385.242188 128.25 C 385.230469 128.015625 385.261719 127.789062 385.339844 127.566406 C 385.417969 127.347656 385.535156 127.148438 385.691406 126.976562 C 385.84375 126.800781 386.027344 126.664062 386.238281 126.5625 C 386.449219 126.460938 386.671875 126.402344 386.90625 126.390625 C 387.140625 126.375 387.367188 126.410156 387.585938 126.484375 C 387.808594 126.5625 388.007812 126.679688 388.179688 126.835938 C 388.355469 126.992188 388.492188 127.175781 388.59375 127.386719 C 388.695312 127.597656 388.753906 127.820312 388.765625 128.054688 L 392.640625 196.976562 C 392.652344 197.210938 392.617188 197.4375 392.539062 197.65625 C 392.460938 197.878906 392.34375 198.074219 392.1875 198.25 C 392.03125 198.425781 391.847656 198.5625 391.640625 198.664062 C 391.429688 198.765625 391.207031 198.824219 390.972656 198.839844 Z M 390.871094 198.839844 " fill-opacity="1" fill-rule="nonzero"/></svg>